<svg width="338" height="48" viewBox="0 0 338 48" fill="none" xmlns="http://www.w3.org/2000/svg">
<path d="M25.2178 14.0493H20.085L19.1943 9.36176C18.6006 8.98676 17.7334 8.65863 16.5928 8.37738C15.4521 8.09613 14.2412 7.95551 12.96 7.95551C11.085 7.95551 9.63184 8.35394 8.60059 9.15082C7.58496 9.93207 7.07715 10.9477 7.07715 12.1977C7.07715 13.3539 7.6084 14.3071 8.6709 15.0571C9.74902 15.7914 11.6006 16.5727 14.2256 17.4008C17.9912 18.4477 20.8428 19.8305 22.7803 21.5493C24.7334 23.268 25.71 25.5258 25.71 28.3227C25.71 31.2446 24.5537 33.5493 22.2412 35.2368C19.9287 36.9243 16.8818 37.768 13.1006 37.768C10.3975 37.768 7.95215 37.3383 5.76465 36.4789C3.59277 35.6196 1.78027 34.4321 0.327148 32.9164V25.7914H5.62402L6.35059 30.643C7.03809 31.2055 7.96777 31.6743 9.13965 32.0493C10.3271 32.4086 11.6475 32.5883 13.1006 32.5883C14.9756 32.5883 16.3975 32.2055 17.3662 31.4399C18.3506 30.6743 18.8428 29.6508 18.8428 28.3696C18.8428 27.0571 18.374 26.0024 17.4365 25.2055C16.5146 24.4086 14.8896 23.6586 12.5615 22.9555C8.51465 21.7836 5.45215 20.393 3.37402 18.7836C1.2959 17.1743 0.256836 14.9711 0.256836 12.1743C0.256836 9.40863 1.42871 7.15082 3.77246 5.40082C6.11621 3.63519 9.06152 2.72894 12.6084 2.68207C15.2334 2.68207 17.624 3.08051 19.7803 3.87738C21.9365 4.67426 23.749 5.73676 25.2178 7.06488V14.0493ZM31.6828 4.83832V0.713318H42.1593V21.9008H43.6828L47.6203 16.3461L45.3937 16.0414V11.9164H57.8625V16.0414L54.8625 16.7211L50.2921 23.0024L56.6906 32.6352L59.2921 33.1743V37.2758H47.5734V33.1743L48.9796 32.9399L45.089 26.6586H42.1593V32.4711L45.1125 33.1743V37.2758H32.0343V33.1743L35.339 32.4711V5.54144L31.6828 4.83832ZM81.6946 37.2758C81.5071 36.8539 81.3431 36.4243 81.2025 35.9868C81.0618 35.5336 80.9525 35.0805 80.8743 34.6274C80.0618 35.5649 79.0696 36.3227 77.8978 36.9008C76.7415 37.4789 75.4134 37.768 73.9134 37.768C71.429 37.768 69.4525 37.0961 67.9837 35.7524C66.5306 34.393 65.804 32.5493 65.804 30.2211C65.804 27.8461 66.7571 26.0102 68.6634 24.7133C70.5696 23.4164 73.3665 22.768 77.054 22.768H80.5462V20.2836C80.5462 19.0649 80.1946 18.1196 79.4915 17.4477C78.7884 16.7758 77.7493 16.4399 76.3743 16.4399C75.5931 16.4399 74.8978 16.5336 74.2884 16.7211C73.679 16.893 73.1868 17.1039 72.8118 17.3539L72.3665 20.0727H67.2103L67.2337 14.4477C68.4837 13.6039 69.9134 12.893 71.5228 12.3149C73.1478 11.7368 74.9134 11.4477 76.8196 11.4477C79.9603 11.4477 82.5071 12.2211 84.4603 13.768C86.429 15.2993 87.4134 17.4868 87.4134 20.3305V30.8071C87.4134 31.1977 87.4134 31.5649 87.4134 31.9086C87.429 32.2524 87.4603 32.5805 87.5071 32.893L89.5931 33.1743V37.2758H81.6946ZM75.765 32.7055C76.7962 32.7055 77.7337 32.4868 78.5775 32.0493C79.4212 31.5961 80.0775 31.0336 80.5462 30.3618V26.4946H77.054C75.6009 26.4946 74.4993 26.8383 73.7493 27.5258C72.9993 28.1977 72.6243 29.0102 72.6243 29.9633C72.6243 30.8227 72.8978 31.4946 73.4446 31.9789C74.0071 32.4633 74.7806 32.7055 75.765 32.7055ZM105.443 5.70551V11.9164H109.897V16.7211H105.443V29.6352C105.443 30.6196 105.647 31.3227 106.053 31.7446C106.459 32.1664 107.006 32.3774 107.693 32.3774C108.162 32.3774 108.568 32.3618 108.912 32.3305C109.272 32.2836 109.67 32.2133 110.107 32.1196L110.693 37.0649C109.928 37.2993 109.17 37.4711 108.42 37.5805C107.67 37.7055 106.857 37.768 105.982 37.768C103.623 37.768 101.803 37.1196 100.522 35.8227C99.2559 34.5258 98.6231 32.4711 98.6231 29.6586V16.7211H94.8965V11.9164H98.6231V5.70551H105.443ZM130.669 37.768C127.012 37.768 124.091 36.5961 121.903 34.2524C119.716 31.9086 118.622 28.9321 118.622 25.3227V24.3852C118.622 20.6196 119.653 17.518 121.716 15.0805C123.794 12.643 126.575 11.4321 130.059 11.4477C133.481 11.4477 136.137 12.4789 138.028 14.5414C139.919 16.6039 140.864 19.393 140.864 22.9086V26.6352H125.723L125.677 26.7758C125.802 28.4477 126.356 29.8227 127.341 30.9008C128.341 31.9789 129.692 32.518 131.395 32.518C132.911 32.518 134.169 32.3696 135.169 32.0727C136.169 31.7602 137.262 31.2758 138.45 30.6196L140.302 34.8383C139.255 35.6664 137.895 36.3618 136.223 36.9243C134.567 37.4868 132.716 37.768 130.669 37.768ZM130.059 16.7211C128.794 16.7211 127.794 17.2055 127.059 18.1743C126.325 19.143 125.872 20.4164 125.7 21.9946L125.77 22.1118H134.161V21.5024C134.161 20.0493 133.817 18.893 133.13 18.0336C132.458 17.1586 131.434 16.7211 130.059 16.7211ZM175.16 14.0493H170.027L169.136 9.36176C168.542 8.98676 167.675 8.65863 166.535 8.37738C165.394 8.09613 164.183 7.95551 162.902 7.95551C161.027 7.95551 159.574 8.35394 158.542 9.15082C157.527 9.93207 157.019 10.9477 157.019 12.1977C157.019 13.3539 157.55 14.3071 158.613 15.0571C159.691 15.7914 161.542 16.5727 164.167 17.4008C167.933 18.4477 170.785 19.8305 172.722 21.5493C174.675 23.268 175.652 25.5258 175.652 28.3227C175.652 31.2446 174.496 33.5493 172.183 35.2368C169.871 36.9243 166.824 37.768 163.042 37.768C160.339 37.768 157.894 37.3383 155.707 36.4789C153.535 35.6196 151.722 34.4321 150.269 32.9164V25.7914H155.566L156.292 30.643C156.98 31.2055 157.91 31.6743 159.082 32.0493C160.269 32.4086 161.589 32.5883 163.042 32.5883C164.917 32.5883 166.339 32.2055 167.308 31.4399C168.292 30.6743 168.785 29.6508 168.785 28.3696C168.785 27.0571 168.316 26.0024 167.378 25.2055C166.457 24.4086 164.832 23.6586 162.503 22.9555C158.457 21.7836 155.394 20.393 153.316 18.7836C151.238 17.1743 150.199 14.9711 150.199 12.1743C150.199 9.40863 151.371 7.15082 153.714 5.40082C156.058 3.63519 159.003 2.72894 162.55 2.68207C165.175 2.68207 167.566 3.08051 169.722 3.87738C171.878 4.67426 173.691 5.73676 175.16 7.06488V14.0493ZM181.836 16.0414V11.9164H191.773L192.101 14.8696C192.851 13.7758 193.75 12.9321 194.797 12.3383C195.843 11.7446 197.062 11.4477 198.453 11.4477C201.593 11.4477 204.031 12.6743 205.765 15.1274C207.5 17.5805 208.367 20.8071 208.367 24.8071V25.2993C208.367 29.0493 207.5 32.0649 205.765 34.3461C204.031 36.6274 201.609 37.768 198.5 37.768C197.172 37.768 195.992 37.5258 194.961 37.0414C193.929 36.5414 193.047 35.8149 192.312 34.8618V42.1977L195.617 42.9008V47.0258H182.187V42.9008L185.492 42.1977V16.7446L181.836 16.0414ZM201.523 24.8071C201.523 22.4164 201.125 20.4789 200.328 18.9946C199.531 17.5102 198.312 16.768 196.672 16.768C195.64 16.768 194.757 16.9789 194.023 17.4008C193.304 17.8227 192.734 18.4243 192.312 19.2055V30.3149C192.734 31.0336 193.304 31.5805 194.023 31.9555C194.757 32.3305 195.656 32.518 196.718 32.518C198.375 32.518 199.586 31.8696 200.351 30.5727C201.132 29.2758 201.523 27.518 201.523 25.2993V24.8071ZM215.254 24.3618C215.254 20.5805 216.308 17.4868 218.418 15.0805C220.543 12.6586 223.472 11.4477 227.207 11.4477C230.957 11.4477 233.887 12.6508 235.996 15.0571C238.121 17.4633 239.183 20.5649 239.183 24.3618V24.8539C239.183 28.6664 238.121 31.7758 235.996 34.1821C233.887 36.5727 230.972 37.768 227.254 37.768C223.488 37.768 220.543 36.5727 218.418 34.1821C216.308 31.7758 215.254 28.6664 215.254 24.8539V24.3618ZM222.097 24.8539C222.097 27.1664 222.504 29.0258 223.316 30.4321C224.129 31.8227 225.441 32.518 227.254 32.518C229.019 32.518 230.308 31.8149 231.121 30.4086C231.949 29.0024 232.363 27.1508 232.363 24.8539V24.3618C232.363 22.1118 231.949 20.2758 231.121 18.8539C230.293 17.4321 228.988 16.7211 227.207 16.7211C225.426 16.7211 224.129 17.4321 223.316 18.8539C222.504 20.2758 222.097 22.1118 222.097 24.3618V24.8539ZM256.102 5.70551V11.9164H260.555V16.7211H256.102V29.6352C256.102 30.6196 256.305 31.3227 256.711 31.7446C257.117 32.1664 257.664 32.3774 258.352 32.3774C258.82 32.3774 259.227 32.3618 259.57 32.3305C259.93 32.2836 260.328 32.2133 260.766 32.1196L261.352 37.0649C260.586 37.2993 259.828 37.4711 259.078 37.5805C258.328 37.7055 257.516 37.768 256.641 37.768C254.281 37.768 252.461 37.1196 251.18 35.8227C249.914 34.5258 249.281 32.4711 249.281 29.6586V16.7211H245.555V11.9164H249.281V5.70551H256.102ZM277.848 5.70551V11.9164H282.301V16.7211H277.848V29.6352C277.848 30.6196 278.051 31.3227 278.457 31.7446C278.863 32.1664 279.41 32.3774 280.098 32.3774C280.567 32.3774 280.973 32.3618 281.317 32.3305C281.676 32.2836 282.074 32.2133 282.512 32.1196L283.098 37.0649C282.332 37.2993 281.574 37.4711 280.824 37.5805C280.074 37.7055 279.262 37.768 278.387 37.768C276.027 37.768 274.207 37.1196 272.926 35.8227C271.66 34.5258 271.027 32.4711 271.027 29.6586V16.7211H267.301V11.9164H271.027V5.70551H277.848ZM301.633 37.768C297.977 37.768 295.055 36.5961 292.867 34.2524C290.68 31.9086 289.586 28.9321 289.586 25.3227V24.3852C289.586 20.6196 290.617 17.518 292.68 15.0805C294.758 12.643 297.539 11.4321 301.024 11.4477C304.446 11.4477 307.102 12.4789 308.992 14.5414C310.883 16.6039 311.828 19.393 311.828 22.9086V26.6352H296.688L296.641 26.7758C296.766 28.4477 297.321 29.8227 298.305 30.9008C299.305 31.9789 300.657 32.518 302.36 32.518C303.875 32.518 305.133 32.3696 306.133 32.0727C307.133 31.7602 308.227 31.2758 309.414 30.6196L311.266 34.8383C310.219 35.6664 308.86 36.3618 307.188 36.9243C305.532 37.4868 303.68 37.768 301.633 37.768ZM301.024 16.7211C299.758 16.7211 298.758 17.2055 298.024 18.1743C297.289 19.143 296.836 20.4164 296.664 21.9946L296.735 22.1118H305.125V21.5024C305.125 20.0493 304.782 18.893 304.094 18.0336C303.422 17.1586 302.399 16.7211 301.024 16.7211ZM319.442 33.1743L322.723 32.4711V16.7446L319.09 16.0414V11.9164H329.098L329.403 15.6196C329.997 14.3071 330.762 13.2836 331.7 12.5493C332.637 11.8149 333.723 11.4477 334.957 11.4477C335.317 11.4477 335.692 11.4789 336.082 11.5414C336.489 11.5883 336.825 11.6508 337.09 11.7289L336.364 17.9633L333.551 17.893C332.551 17.893 331.723 18.0883 331.067 18.4789C330.411 18.8696 329.911 19.4243 329.567 20.143V32.4711L332.848 33.1743V37.2758H319.442V33.1743Z" fill="black"/>
</svg>
