<svg xmlns="http://www.w3.org/2000/svg" xmlns:xlink="http://www.w3.org/1999/xlink" width="100" height="100" viewBox="0 0 100 100"><g><g transform="translate(50 50) scale(0.69 -0.69) rotate(-45) translate(-50 -50)" style="fill:#000000"><svg fill="#000000" xmlns="http://www.w3.org/2000/svg" xmlns:xlink="http://www.w3.org/1999/xlink" version="1.1" x="0px" y="0px" viewBox="0 0 100 100" enable-background="new 0 0 100 100" xml:space="preserve"><path d="M90.501,60.158c-0.233-0.323-0.632-0.471-1.02-0.375c-4.692,1.158-9.648,1.006-14.73-0.451  c-4.091-1.173-8.274-3.189-12.434-5.993c-7.031-4.739-11.631-10.168-11.784-10.35c-0.088-0.113-1.745-2.299-2.238-5.665  c-0.679-4.634,1.099-9.131,5.285-13.367c3.751-3.796,5.565-7.615,5.389-11.348c-0.216-4.615-3.407-7.34-3.543-7.454  c-0.289-0.243-0.721-0.205-0.964,0.085c-0.243,0.29-0.205,0.721,0.085,0.964c0.029,0.024,2.867,2.448,3.055,6.47  c0.157,3.336-1.524,6.809-4.996,10.322c-5.61,5.677-6.177,11.034-5.665,14.527c0.422,2.88,1.608,4.967,2.192,5.852  c-1.191,1.344-5.411,5.889-11.42,9.945c-4.163,2.81-8.349,4.831-12.444,6.007c-5.088,1.462-10.05,1.616-14.748,0.456  c-0.388-0.096-0.787,0.052-1.02,0.375c-0.233,0.324-0.246,0.751-0.033,1.089c3.856,6.101,9.88,11.077,17.905,14.79  c10.338,4.783,11.583,9.817,12.787,14.685c0.235,0.95,0.478,1.932,0.784,2.891c0.267,0.837,1.007,1.384,1.885,1.394  c0.008,0,0.016,0,0.024,0c0.865,0,1.605-0.527,1.887-1.348c1.626-4.73,3.495-7.334,5.263-7.334c1.768,0,3.637,2.605,5.263,7.334  c0.282,0.821,1.021,1.348,1.887,1.348c0.008,0,0.016,0,0.024,0c0.878-0.01,1.618-0.557,1.885-1.394  c0.306-0.958,0.549-1.941,0.784-2.891c1.204-4.868,2.448-9.902,12.787-14.685c8.026-3.713,14.05-8.689,17.905-14.79  C90.747,60.909,90.734,60.481,90.501,60.158z M72.054,74.795c-10.934,5.059-12.319,10.658-13.54,15.598  c-0.24,0.971-0.467,1.888-0.759,2.803c-0.129,0.405-0.489,0.441-0.597,0.442c-0.002,0-0.004,0-0.006,0  c-0.113,0-0.461-0.033-0.595-0.425c-1.883-5.479-4.089-8.258-6.557-8.258c-2.467,0-4.673,2.778-6.557,8.258  c-0.137,0.399-0.503,0.427-0.602,0.425c-0.107-0.001-0.467-0.037-0.597-0.442c-0.292-0.915-0.519-1.832-0.759-2.803  c-1.221-4.94-2.606-10.539-13.54-15.598c-7.419-3.433-13.062-7.959-16.789-13.464c4.645,0.971,9.514,0.74,14.489-0.69  c4.233-1.216,8.55-3.298,12.832-6.188c5.957-4.021,10.11-8.411,11.522-9.993c1.412,1.582,5.565,5.972,11.522,9.993  c4.282,2.89,8.599,4.972,12.832,6.188c4.976,1.43,9.845,1.661,14.49,0.689C85.116,66.835,79.473,71.362,72.054,74.795z"></path><path d="M42.771,79.141c-0.896,0-1.625,0.729-1.625,1.625s0.729,1.625,1.625,1.625c0.896,0,1.625-0.729,1.625-1.625  S43.667,79.141,42.771,79.141z M42.771,81.413c-0.357,0-0.647-0.29-0.647-0.647s0.29-0.647,0.647-0.647  c0.357,0,0.647,0.29,0.647,0.647S43.128,81.413,42.771,81.413z"></path><path d="M57.046,79.141c-0.896,0-1.625,0.729-1.625,1.625s0.729,1.625,1.625,1.625c0.896,0,1.625-0.729,1.625-1.625  S57.942,79.141,57.046,79.141z M57.046,81.413c-0.357,0-0.647-0.29-0.647-0.647s0.29-0.647,0.647-0.647s0.647,0.29,0.647,0.647  S57.403,81.413,57.046,81.413z"></path><path d="M68.068,61.248c-8.938-4.006-14.488-9.944-14.543-10.003c-0.183-0.198-0.492-0.211-0.69-0.027  c-0.198,0.183-0.211,0.492-0.027,0.69c0.056,0.061,5.732,6.14,14.861,10.232c0.065,0.029,0.133,0.043,0.2,0.043  c0.186,0,0.365-0.108,0.446-0.289C68.425,61.647,68.315,61.358,68.068,61.248z"></path><path d="M73.446,63.256c-1.145-0.343-2.684-0.955-2.699-0.961c-0.251-0.1-0.535,0.022-0.635,0.273  c-0.1,0.251,0.022,0.535,0.273,0.635c0.065,0.026,1.594,0.634,2.78,0.99c0.047,0.014,0.094,0.021,0.141,0.021  c0.21,0,0.404-0.137,0.468-0.348C73.851,63.606,73.705,63.334,73.446,63.256z"></path></svg></g></g></svg>