<svg width="58" height="75" viewBox="0 0 58 75" fill="none" xmlns="http://www.w3.org/2000/svg">
<path d="M28.8429 47.5C30.6374 45.7594 44.5346 30.399 55.9039 29.54C59.798 29.2458 47.549 20.9263 41.2612 15.8801C32.6156 8.94157 28.8429 2 28.8429 2" stroke="black"/>
<circle cx="25.5" cy="14.5" r="1.25" stroke="black" stroke-width="0.5"/>
<path d="M29.1925 47.5C27.398 45.7594 13.5009 30.399 2.1315 29.54C-1.76253 29.2458 10.4864 20.9263 16.7742 15.8801C25.4198 8.94157 29.1925 2 29.1925 2" stroke="black"/>
<circle r="1.25" transform="matrix(-1 0 0 1 32.5354 14.5)" stroke="black" stroke-width="0.5"/>
<path d="M28.8605 47C28.8605 47 25.2002 51.2252 26.1473 55.5958C27.3453 61.1244 38.1198 66.5004 29.1564 73.7051" stroke="black"/>
</svg>
